<svg width="20" height="20" viewBox="0 0 20 20" fill="none" xmlns="http://www.w3.org/2000/svg">
<g id="dashboard">
<path id="Vector" d="M11.2083 9.62512L12.9166 7.91679M8.33333 10.8335C8.33333 11.2755 8.50893 11.6994 8.82149 12.012C9.13405 12.3245 9.55797 12.5001 10 12.5001C10.442 12.5001 10.8659 12.3245 11.1785 12.012C11.4911 11.6994 11.6667 11.2755 11.6667 10.8335C11.6667 10.3914 11.4911 9.9675 11.1785 9.65494C10.8659 9.34238 10.442 9.16679 10 9.16679C9.55797 9.16679 9.13405 9.34238 8.82149 9.65494C8.50893 9.9675 8.33333 10.3914 8.33333 10.8335ZM5.33333 16.6667C4.11512 15.6984 3.22826 14.3752 2.79565 12.8804C2.36304 11.3856 2.4061 9.79328 2.91887 8.32405C3.43164 6.85482 4.38873 5.58147 5.65749 4.68046C6.92625 3.77945 8.44386 3.29541 10 3.29541C11.5561 3.29541 13.0737 3.77945 14.3425 4.68046C15.6113 5.58147 16.5684 6.85482 17.0811 8.32405C17.5939 9.79328 17.637 11.3856 17.2044 12.8804C16.7717 14.3752 15.8849 15.6984 14.6667 16.6667H5.33333Z" stroke="#181E4B" stroke-width="1.66667" stroke-linecap="round" stroke-linejoin="round"/>
</g>
</svg>
