<svg width="21" height="20" viewBox="0 0 21 20" fill="none" xmlns="http://www.w3.org/2000/svg">
<g id="eye-off">
<path id="Vector" d="M9.32089 8.82243C9.00837 9.13505 8.83285 9.55902 8.83293 10.0011C8.833 10.4431 9.00868 10.867 9.3213 11.1795C9.63393 11.492 10.0579 11.6675 10.4999 11.6675C10.942 11.6674 11.3659 11.4917 11.6784 11.1791M14.4008 13.8942C13.2319 14.6256 11.8789 15.0091 10.5 15C7.5 15 5 13.3334 3 10C4.06 8.23336 5.26 6.93503 6.6 6.10503M8.98333 5.15002C9.48253 5.04897 9.99068 4.99871 10.5 5.00002C13.5 5.00002 16 6.66669 18 10C17.445 10.925 16.8508 11.7225 16.2183 12.3917M3 2.5L18 17.5" stroke="#181E4B" stroke-width="2" stroke-linecap="round" stroke-linejoin="round"/>
</g>
</svg>
