<svg width="21" height="20" viewBox="0 0 21 20" fill="none" xmlns="http://www.w3.org/2000/svg">
<g id="lock">
<path id="Vector" d="M7.16663 9.16667V5.83333C7.16663 4.94928 7.51782 4.10143 8.14294 3.47631C8.76806 2.85119 9.6159 2.5 10.5 2.5C11.384 2.5 12.2319 2.85119 12.857 3.47631C13.4821 4.10143 13.8333 4.94928 13.8333 5.83333V9.16667M4.66663 10.8333C4.66663 10.3913 4.84222 9.96738 5.15478 9.65482C5.46734 9.34226 5.89127 9.16667 6.33329 9.16667H14.6666C15.1087 9.16667 15.5326 9.34226 15.8451 9.65482C16.1577 9.96738 16.3333 10.3913 16.3333 10.8333V15.8333C16.3333 16.2754 16.1577 16.6993 15.8451 17.0118C15.5326 17.3244 15.1087 17.5 14.6666 17.5H6.33329C5.89127 17.5 5.46734 17.3244 5.15478 17.0118C4.84222 16.6993 4.66663 16.2754 4.66663 15.8333V10.8333ZM9.66663 13.3333C9.66663 13.5543 9.75442 13.7663 9.9107 13.9226C10.067 14.0789 10.2789 14.1667 10.5 14.1667C10.721 14.1667 10.9329 14.0789 11.0892 13.9226C11.2455 13.7663 11.3333 13.5543 11.3333 13.3333C11.3333 13.1123 11.2455 12.9004 11.0892 12.7441C10.9329 12.5878 10.721 12.5 10.5 12.5C10.2789 12.5 10.067 12.5878 9.9107 12.7441C9.75442 12.9004 9.66663 13.1123 9.66663 13.3333Z" stroke="#181E4B" stroke-width="2" stroke-linecap="round" stroke-linejoin="round"/>
</g>
</svg>
