<svg width="21" height="20" viewBox="0 0 21 20" fill="none" xmlns="http://www.w3.org/2000/svg">
<g id="mail-filled">
<g id="Vector">
<path d="M18.8333 6.27933V14.1668C18.8333 14.8045 18.5897 15.4181 18.1522 15.882C17.7148 16.346 17.1165 16.6253 16.48 16.6627L16.3333 16.6668H4.66663C4.02895 16.6669 3.41536 16.4232 2.95141 15.9858C2.48745 15.5483 2.2082 14.9501 2.17079 14.3135L2.16663 14.1668V6.27933L10.0375 11.5268L10.1341 11.5818C10.248 11.6375 10.3732 11.6664 10.5 11.6664C10.6268 11.6664 10.7519 11.6375 10.8658 11.5818L10.9625 11.5268L18.8333 6.27933Z" fill="#232323"/>
<path d="M18.8333 6.27933V14.1668C18.8333 14.8045 18.5897 15.4181 18.1522 15.882C17.7148 16.346 17.1165 16.6253 16.48 16.6627L16.3333 16.6668H4.66663C4.02895 16.6669 3.41536 16.4232 2.95141 15.9858C2.48745 15.5483 2.2082 14.9501 2.17079 14.3135L2.16663 14.1668V6.27933L10.0375 11.5268L10.1341 11.5818C10.248 11.6375 10.3732 11.6664 10.5 11.6664C10.6268 11.6664 10.7519 11.6375 10.8658 11.5818L10.9625 11.5268L18.8333 6.27933Z" fill="black" fill-opacity="0.2"/>
<path d="M16.3333 3.3335C17.2333 3.3335 18.0225 3.8085 18.4625 4.52266L10.5 9.831L2.53746 4.52266C2.7464 4.1833 3.03347 3.89883 3.37472 3.69298C3.71596 3.48713 4.10149 3.36588 4.49913 3.33933L4.66663 3.3335H16.3333Z" fill="#232323"/>
<path d="M16.3333 3.3335C17.2333 3.3335 18.0225 3.8085 18.4625 4.52266L10.5 9.831L2.53746 4.52266C2.7464 4.1833 3.03347 3.89883 3.37472 3.69298C3.71596 3.48713 4.10149 3.36588 4.49913 3.33933L4.66663 3.3335H16.3333Z" fill="black" fill-opacity="0.2"/>
<path d="M18.8333 6.27933V14.1668C18.8333 14.8045 18.5897 15.4181 18.1522 15.882C17.7148 16.346 17.1165 16.6253 16.48 16.6627L16.3333 16.6668H4.66663C4.02895 16.6669 3.41536 16.4232 2.95141 15.9858C2.48745 15.5483 2.2082 14.9501 2.17079 14.3135L2.16663 14.1668V6.27933L10.0375 11.5268L10.1341 11.5818C10.248 11.6375 10.3732 11.6664 10.5 11.6664C10.6268 11.6664 10.7519 11.6375 10.8658 11.5818L10.9625 11.5268L18.8333 6.27933Z" stroke="#181E4B"/>
<path d="M16.3333 3.3335C17.2333 3.3335 18.0225 3.8085 18.4625 4.52266L10.5 9.831L2.53746 4.52266C2.7464 4.1833 3.03347 3.89883 3.37472 3.69298C3.71596 3.48713 4.10149 3.36588 4.49913 3.33933L4.66663 3.3335H16.3333Z" stroke="#181E4B"/>
</g>
</g>
</svg>
